<?xml version="1.0" standalone="no"?>
<!DOCTYPE svg PUBLIC "-//W3C//DTD SVG 20010904//EN"
 "http://www.w3.org/TR/2001/REC-SVG-20010904/DTD/svg10.dtd">
<svg version="1.0" xmlns="http://www.w3.org/2000/svg"
 width="98.000000pt" height="98.000000pt" viewBox="0 0 98.000000 98.000000"
 preserveAspectRatio="xMidYMid meet">
<metadata>
Created by potrace 1.11, written by Peter Selinger 2001-2013
</metadata>
<g transform="translate(0.000000,98.000000) scale(0.100000,-0.100000)"
fill="#000000" stroke="none">
<path d="M475 975 c-5 -2 -22 -6 -37 -9 -37 -8 -85 -51 -108 -97 -44 -85 -11
-196 71 -240 l27 -14 -29 -28 -28 -27 -16 30 c-38 74 -153 106 -240 67 -100
-45 -133 -194 -62 -283 28 -36 92 -64 148 -64 55 0 130 43 153 89 l16 30 27
-27 28 -27 -38 -28 c-90 -66 -101 -200 -24 -285 27 -29 109 -53 156 -46 164
26 215 233 81 332 l-38 28 27 26 27 27 19 -35 c29 -54 78 -79 155 -79 52 0 72
5 97 23 99 70 114 196 34 280 -83 87 -217 76 -284 -23 l-23 -34 -26 28 -26 28
29 17 c16 10 42 36 57 58 21 33 26 52 26 99 -1 37 -8 69 -19 86 -27 42 -76 82
-110 88 -16 4 -37 8 -45 10 -8 2 -19 2 -25 0z m91 -46 c73 -35 105 -136 68
-215 -17 -36 -72 -76 -107 -78 -20 -1 -22 4 -21 56 1 60 16 90 43 87 46 -4 82
2 79 13 -3 8 -22 12 -48 11 -24 -1 -53 5 -64 13 -17 12 -23 12 -43 -1 -13 -9
-38 -14 -57 -12 -34 4 -66 -6 -55 -17 3 -4 26 -7 50 -8 59 -2 69 -15 69 -87 0
-59 0 -60 -26 -55 -65 12 -117 81 -117 154 -1 60 27 108 79 137 49 28 95 29
150 2z m-61 -139 c-3 -5 -10 -10 -16 -10 -5 0 -9 5 -9 10 0 6 7 10 16 10 8 0
12 -4 9 -10z m376 -167 c34 -20 69 -89 69 -135 0 -45 -38 -108 -79 -132 -88
-51 -220 4 -237 100 -4 23 -3 24 60 24 73 0 89 -11 86 -62 -3 -48 -1 -58 10
-58 6 0 10 21 10 47 0 27 6 53 15 63 13 14 13 19 0 44 -8 16 -15 48 -15 72 0
24 -4 44 -10 44 -11 0 -13 -16 -10 -66 1 -18 -6 -36 -15 -44 -18 -15 -135 -21
-135 -8 0 22 31 76 57 101 51 48 123 51 194 10z m-605 6 c52 -32 102 -117 71
-120 -46 -5 -95 -3 -114 5 -20 8 -23 17 -23 63 0 29 -4 53 -10 53 -11 0 -11 1
-15 -58 -1 -23 -8 -49 -15 -57 -11 -14 -5 -55 9 -55 4 0 7 -21 6 -47 0 -28 5
-48 13 -50 8 -3 12 10 12 44 0 27 5 54 12 61 7 7 39 12 74 12 l63 0 -8 -28
c-29 -99 -132 -145 -223 -98 -63 32 -83 66 -83 139 0 48 5 69 22 93 45 63 144
84 209 43z m304 -74 c37 -60 21 -129 -38 -158 -54 -27 -118 -4 -148 55 -41 79
45 172 134 145 19 -6 41 -24 52 -42z m-373 -71 c-9 -9 -28 6 -21 18 4 6 10 6
17 -1 6 -6 8 -13 4 -17z m593 6 c0 -5 -4 -10 -10 -10 -5 0 -10 5 -10 10 0 6 5
10 10 10 6 0 10 -4 10 -10z m-331 -266 c-7 -9 -31 -14 -61 -14 -35 0 -48 -4
-45 -12 2 -8 21 -13 43 -14 21 0 51 -6 66 -14 22 -10 30 -11 43 0 8 7 34 14
58 15 57 4 57 4 57 15 0 6 -25 10 -55 10 -70 0 -73 5 -67 122 2 22 6 25 25 21
33 -8 85 -50 102 -83 33 -63 10 -161 -46 -201 -86 -61 -219 -17 -247 82 -22
81 29 178 103 197 l30 8 3 -59 c2 -35 -2 -65 -9 -73z m36 -24 c3 -5 -1 -10 -9
-10 -9 0 -16 5 -16 10 0 6 4 10 9 10 6 0 13 -4 16 -10z"/>
<path d="M500 572 c0 -4 14 -20 31 -35 34 -30 33 -58 -3 -89 -27 -23 -49 -23
-76 2 -27 26 -28 50 -2 83 33 42 17 54 -20 15 -47 -50 -7 -138 62 -138 38 0
48 6 71 40 24 34 21 63 -9 99 -24 29 -54 41 -54 23z"/>
</g>
</svg>
